<svg width="393" height="410" fill="none" xmlns="http://www.w3.org/2000/svg"><path d="M330.743 213.275H62.201v113.124h268.542V213.275Z" fill="#38BFF2" stroke="#263238" stroke-linecap="round" stroke-linejoin="round"/><path d="M93.075 220.122H67.812v13.984h25.263v-13.984ZM324.526 288.31h-39.792v13.985h39.792V288.31ZM324.538 237.588h-24.564v13.985h24.564v-13.985ZM93.075 271.065H67.812v13.985h25.263v-13.985ZM88.267 254.216H67.813v13.985h20.454v-13.985ZM81.794 237.169H67.813v13.985h13.981v-13.985ZM99.653 237.169H85.67v13.985h13.982v-13.985ZM117.499 237.169h-13.981v13.985h13.981v-13.985ZM135.347 237.169h-13.982v13.985h13.982v-13.985ZM153.205 237.169h-13.981v13.985h13.981v-13.985ZM171.052 237.169H157.07v13.985h13.982v-13.985ZM188.899 237.169h-13.982v13.985h13.982v-13.985ZM206.758 237.169h-13.982v13.985h13.982v-13.985ZM224.605 237.169h-13.982v13.985h13.982v-13.985ZM242.463 237.169h-13.982v13.985h13.982v-13.985ZM260.31 237.169h-13.982v13.985h13.982v-13.985ZM278.157 237.169h-13.982v13.985h13.982v-13.985ZM296.015 237.169h-13.982v13.985h13.982v-13.985ZM81.794 305.555H67.813v13.985h13.981v-13.985ZM99.653 305.555H85.67v13.985h13.982v-13.985ZM117.499 305.555h-13.981v13.985h13.981v-13.985ZM138.432 305.555h-17.067v13.985h17.067v-13.985ZM227.69 305.555h-85.393v13.985h85.393v-13.985ZM288.227 305.555h-13.982v13.985h13.982v-13.985ZM306.109 305.555h-13.982v13.985h13.982v-13.985ZM252.894 305.555h-21.712v13.985h21.712v-13.985ZM324.526 305.555h-13.982v13.985h13.982v-13.985ZM106.219 254.216H92.237v13.985h13.982v-13.985ZM124.066 254.216h-13.982v13.985h13.982v-13.985ZM141.924 254.216h-13.982v13.985h13.982v-13.985ZM159.771 254.216h-13.982v13.985h13.982v-13.985ZM177.63 254.216h-13.982v13.985h13.982v-13.985ZM195.477 254.216h-13.982v13.985h13.982v-13.985ZM213.324 254.216h-13.982v13.985h13.982v-13.985ZM231.182 254.216H217.2v13.985h13.982v-13.985ZM249.029 254.216h-13.982v13.985h13.982v-13.985ZM266.876 254.216h-13.981v13.985h13.981v-13.985ZM284.735 254.216h-13.982v13.985h13.982v-13.985ZM302.581 254.216H288.6v13.985h13.981v-13.985ZM324.526 254.216v31.044h-13.982v-17.059h-4.098v-13.985h18.08ZM110.317 271.263H96.335v13.985h13.982v-13.985ZM128.163 271.263h-13.981v13.985h13.981v-13.985ZM146.011 271.263h-13.982v13.985h13.982v-13.985ZM163.87 271.263h-13.982v13.985h13.982v-13.985ZM181.716 271.263h-13.982v13.985h13.982v-13.985ZM199.575 271.263h-13.982v13.985h13.982v-13.985ZM217.421 271.263h-13.982v13.985h13.982v-13.985ZM235.268 271.263h-13.981v13.985h13.981v-13.985ZM253.127 271.263h-13.981v13.985h13.981v-13.985ZM270.974 271.263h-13.982v13.985h13.982v-13.985ZM288.821 271.263h-13.982v13.985h13.982v-13.985ZM306.679 271.263h-13.982v13.985h13.982v-13.985ZM102.726 288.31H88.744v13.985h13.982V288.31ZM120.573 288.31h-13.982v13.985h13.982V288.31ZM138.432 288.31H124.45v13.985h13.982V288.31ZM156.279 288.31h-13.982v13.985h13.982V288.31ZM174.137 288.31h-13.982v13.985h13.982V288.31ZM191.984 288.31h-13.982v13.985h13.982V288.31ZM209.831 288.31H195.85v13.985h13.981V288.31ZM227.69 288.31h-13.982v13.985h13.982V288.31ZM245.537 288.31h-13.982v13.985h13.982V288.31ZM263.383 288.31h-13.982v13.985h13.982V288.31ZM281.242 288.31H267.26v13.985h13.982V288.31ZM110.317 220.96H96.335v13.985h13.982V220.96ZM128.163 220.96h-13.981v13.985h13.981V220.96ZM146.011 220.96h-13.982v13.985h13.982V220.96ZM163.87 220.96h-13.982v13.985h13.982V220.96ZM181.716 220.96h-13.982v13.985h13.982V220.96ZM199.575 220.96h-13.982v13.985h13.982V220.96ZM217.421 220.96h-13.982v13.985h13.982V220.96ZM235.268 220.96h-13.981v13.985h13.981V220.96ZM253.127 220.96h-13.981v13.985h13.981V220.96ZM270.974 220.96h-13.982v13.985h13.982V220.96ZM288.821 220.96h-13.982v13.985h13.982V220.96ZM306.679 220.96h-13.982v13.985h13.982V220.96ZM324.526 220.96h-13.982v13.985h13.982V220.96ZM84.751 288.31H67.812v13.985h16.94V288.31Z" fill="#fff" stroke="#263238" stroke-miterlimit="10"/><path d="m62.201 213.997 5.611-1.875H327.1l3.691 1.851-268.589.024Z" fill="#263238"/><path d="m297.354 348.022.14-51.479c.559-2.073 1.013-9.711 2.2-15.033 2.026-8.919-5.937-19.679-6.496-20.028-2.235-1.397-6.985-1.374-6.985-1.374s-4.657-5.31-8.813-6.987a20.806 20.806 0 0 0-8.917-1.106 42.673 42.673 0 0 0-10.594-6.416 8.716 8.716 0 0 0-8.918 1.677l-5.239 8.151a6.083 6.083 0 0 0 .71 7.592c2.492 2.445 5.682 1.304 7.288 1.304 2.224 0 3.062-2.515 3.062-2.515s.547 13.1 0 14.777c-.571 1.665-4.738 5.566-4.738 5.566l-13.971-18.433a133.986 133.986 0 0 1-12.538-20.704 10.181 10.181 0 0 0-1.571-2.445c-2.445-2.76-7.672-3.575-9.034 1.549a10.132 10.132 0 0 0 .221 4.937c5.821 17.21 13.248 30.217 20.012 43.771 4.016 8.046 2.526 7.953 4.529 11.586-.233.163-.117.465-.373.617-.978 3.912-1.665 7.836-2.654 11.749a53.581 53.581 0 0 0-4.459-14.183c.565-2.725.772-5.512.617-8.291a10.924 10.924 0 0 0-3.493-7.347 7.182 7.182 0 0 0-4.063-1.584 4.239 4.239 0 0 0-4.47 3.622 43.477 43.477 0 0 1-1.164 6.311 62.712 62.712 0 0 1-3.213 7.906c0 5.205 3.213 4.355 5.553 25.245 1.816 16.302 22.771 27.026 34.18 38.775l13.512 39.921c17-8 24-12 38.5-23l-8.821-34.131Z" fill="#fff"/><path d="M227.631 319.843c.139-.256.256-.512.372-.78a.887.887 0 0 0-.372.78ZM261.194 247.812a11.481 11.481 0 0 0-5.506-2.329l5.506 2.329ZM254.989 253.261l.07.582a.92.92 0 0 0-.07-.582Z" fill="#92E3A9"/><g opacity=".5" fill="#fff"><path opacity=".5" d="M227.631 319.843c.139-.256.256-.512.372-.78a.887.887 0 0 0-.372.78ZM261.194 247.812a11.481 11.481 0 0 0-5.506-2.329l5.506 2.329ZM254.989 253.261l.07.582a.926.926 0 0 0-.07-.582ZM261.404 303.762c-.524-1.304-3.062-5.053-4.541-2.457l4.541 2.457Z"/></g><path d="M218.12 297.498a14.648 14.648 0 0 0-3.411 3.831l3.411-3.831Z" fill="#fff"/><path d="m267.675 405.153-13.396-39.956c-11.409-11.749-32.364-22.496-34.18-38.775-2.328-20.89-5.553-20.04-5.553-25.245a62.712 62.712 0 0 0 3.213-7.906 43.477 43.477 0 0 0 1.164-6.311 4.236 4.236 0 0 1 4.471-3.622 7.187 7.187 0 0 1 4.063 1.584 10.923 10.923 0 0 1 3.492 7.347 32.046 32.046 0 0 1-.617 8.291 53.581 53.581 0 0 1 4.459 14.183c.99-3.913 1.676-7.837 2.654-11.749.257-.152.14-.454.373-.617-2.002-3.633-.512-3.494-4.529-11.586-6.764-13.554-14.179-26.561-20.012-43.771a10.132 10.132 0 0 1-.221-4.937c1.362-5.124 6.589-4.309 9.034-1.549a10.181 10.181 0 0 1 1.571 2.445 133.913 133.913 0 0 0 12.539 20.704l13.97 18.433s4.168-3.901 4.738-5.566c.547-1.677 0-14.777 0-14.777s-.838 2.515-3.062 2.515c-1.606 0-4.796 1.165-7.287-1.304a6.078 6.078 0 0 1-.827-7.557l5.204-8.151a8.719 8.719 0 0 1 8.918-1.677 42.673 42.673 0 0 1 10.594 6.416 20.806 20.806 0 0 1 8.917 1.106c4.191 1.689 8.813 6.987 8.813 6.987s4.738 0 6.985 1.374c.559.349 8.522 11.109 6.496 20.028-1.164 5.322-1.641 12.96-2.2 15.033l-.14 51.479 9.356 34.131" stroke="#263238" stroke-miterlimit="10"/><path d="M269.763 253.832a91.739 91.739 0 0 1 3.167 23.288 12.597 12.597 0 0 0 .419 3.913 3.851 3.851 0 0 0 2.666 2.655M286.225 261.482c3.493 7.289-.081 23.568.175 24.721a4.128 4.128 0 0 0 1.967 2.794M256.212 252.83c-.407 2.329-.745 5.007-1.164 7.325a13.487 13.487 0 0 1-4.657-9.316M233.906 314.964l-2.514 1.106M234.547 316.979a14.544 14.544 0 0 0 0 5.892M249.262 295.215l2.782 5.019M254.617 276.852l2.77-3.912M293.582 295.215l-.838 3.074" stroke="#263238" stroke-miterlimit="10"/><path d="M286.807 286.866a276.415 276.415 0 0 1 2.456-7.824M294.956 272.952a3.142 3.142 0 0 1 4.238 1.315M278.273 259.584a6.007 6.007 0 0 1 5.6 1.281M226.42 267.351a8.509 8.509 0 0 1 7.218-2.725M215.908 245.39a7.802 7.802 0 0 1 5.821-1.374M218.12 297.498a14.648 14.648 0 0 0-3.411 3.831M219.191 292.2c1.84-1.305 4.774 1.63 6.462.128a2.674 2.674 0 0 0 .57-2.515 8.808 8.808 0 0 1-.338-2.667M271.102 284.13a21.08 21.08 0 0 1 1.28 14.928M284.63 291.315a9.654 9.654 0 0 1-1.165 6.392" stroke="#263238" stroke-miterlimit="10"/><path d="M167.623 290.661c-.5-2.329-3.772-1.968-3.772-1.968-11.001.64-12.48 17.885-12.48 17.885l-3.946 11.819-1.164-17.769.116-22.904s3.33-21.915 1.851-25.35a5.02 5.02 0 0 0-4.552-3.33c-6.403-1.607-6.775 7.627-6.775 7.627l-5.402 18.841-2.282 20.319-1.839-.99s-.874-21.554-.501-21.915c.373-.36 2.585-14.904 2.585-14.904s1.164-2.702 2.712-6.148a7.47 7.47 0 0 0 0-6.16c-2.596-5.298-7.998-2.83-9.115 0a82.243 82.243 0 0 1-4.424 8.372l-6.171 16.873c.233 3.819-1.955 22.648-1.955 22.648l-2.224-1.002-3.574-11.062 2.724-11.33s5.949-6.52 4.913-10.363c-1.036-3.843-6.03-2.701-6.03-2.701L96.236 269.2h-2.969l-6.985 8.873a56.219 56.219 0 0 0-1.641 29.518l1.606 7.488v48.405s-4.785 7.755-4.785 8.489c0 .337-4.528 8.553-7.287 16.18 12.022 7.861 25 14.5 40.5 21 4.412-12.424 11.934-29.402 14.787-32.499 5.657-6.16 16.74-17.979 16.74-17.979s12.585-20.226 14.064-26.957c1.164-5.519 4.168-15.533 5.192-18.968.238-.78.333-1.597.279-2.411-.081-1.816-.256-5.344-.256-8.453 0-4.495 2.62-8.931 2.142-11.225Z" fill="#fff"/><path d="M74.175 388.153c3.5-8 8.41-19.16 8.41-19.497 0-.734 4.786-8.489 4.786-8.489v-48.393l-1.607-7.441a56.216 56.216 0 0 1 1.607-29.448l6.985-8.873h2.968l10.082-12.052s5.053-1.165 6.031 2.701c.978 3.866-4.913 10.34-4.913 10.34l-2.724 11.33 3.574 11.062 2.223 1.002s2.189-18.829 1.956-22.648l6.17-16.873a81.846 81.846 0 0 0 4.424-8.372c1.164-2.83 6.519-5.298 9.116 0a7.486 7.486 0 0 1 0 6.16 267.836 267.836 0 0 1-2.713 6.148s-2.212 14.532-2.584 14.905c-.373.372.5 21.914.5 21.914l1.84.99 2.223-20.319 5.402-18.841s.373-9.234 6.776-7.627a5.017 5.017 0 0 1 4.551 3.33c1.479 3.436-1.851 25.35-1.851 25.35l-.116 22.904 1.164 17.769 3.947-11.819s1.478-17.245 12.48-17.885c0 0 3.271-.338 3.772 1.968.5 2.305-2.142 6.73-2.142 11.167 0 3.109.174 6.637.256 8.453a6.758 6.758 0 0 1-.28 2.411c-1.024 3.435-3.969 13.449-5.192 18.968-1.478 6.731-14.063 26.957-14.063 26.957s-11.083 11.819-16.741 17.978c-2.852 3.098-11.405 23.346-15.817 35.77" stroke="#263238" stroke-miterlimit="10"/><path d="M111.434 292.176a7.044 7.044 0 0 1-1.664 6.637" fill="#fff"/><path d="M111.434 292.176a7.044 7.044 0 0 1-1.664 6.637" stroke="#263238" stroke-miterlimit="10"/><path d="M92.656 308.455c1.595-2.48 3.155-5.88 2.724-8.792-.838-5.717-3.492-12.296-2.27-17.955.745-3.61 1.502-7.231 2.247-10.841" fill="#fff"/><path d="M92.656 308.455c1.595-2.48 3.155-5.88 2.724-8.792-.838-5.717-3.492-12.296-2.27-17.955.745-3.61 1.502-7.231 2.247-10.841M139.072 254.449a11.416 11.416 0 0 1 5.821 0v-1.619M123.821 247.171a3.708 3.708 0 0 0 3.857.218 3.718 3.718 0 0 0 1.964-3.327M165.86 287.6a7.136 7.136 0 0 0-5.344 7.371l2.852.85" stroke="#263238" stroke-miterlimit="10"/><path d="M128.397 289.021c.128 1.956-.117 6.625 0 8.57v-8.57Z" fill="#fff"/><path d="M128.397 289.021c.128 1.956-.117 6.625 0 8.57" stroke="#263238" stroke-miterlimit="10"/><path d="M130.538 291.722a3641.66 3641.66 0 0 1-.71 9.607v-1.223" fill="#fff"/><path d="M130.538 291.722a3641.66 3641.66 0 0 1-.71 9.607v-1.223" stroke="#263238" stroke-miterlimit="10"/><path d="M148.269 318.714a15.998 15.998 0 0 1-1.095 10.549l1.095-10.549Z" fill="#fff"/><path d="M148.269 318.714a15.998 15.998 0 0 1-1.095 10.549M118.792 301.934c-2.538 2.783-2.166 9.455-.373 13.135M137.547 306.522a13.14 13.14 0 0 1-3.109 8.547M100.305 303.262a11.915 11.915 0 0 0 1.735 8.151M89.5 311.96a9.958 9.958 0 0 0 1.794 6.218M104.309 258.268a3.713 3.713 0 0 1 4.075.664l1.467-1.91M116.254 266.827a4.805 4.805 0 0 1 6.158 1.036M134.904 272.649a7.76 7.76 0 0 1 6.625.14M93.4 282.418a6.301 6.301 0 0 1 6.101-3.027M85.59 293.55a3.308 3.308 0 0 1 2.759-3.097" stroke="#263238" stroke-miterlimit="10"/><path d="M391.583 14.88 1 16.72l5.902-8.85A15.333 15.333 0 0 1 19.64 1h353.399a15.287 15.287 0 0 1 11.921 5.706l6.624 8.174Z" fill="#fff" stroke="#263238" stroke-linecap="round" stroke-linejoin="round"/><path d="M203.078 73.439h-21.397c-21.957 0-39.757 17.803-39.757 39.765v21.402c0 21.962 17.8 39.765 39.757 39.765h21.397c21.957 0 39.757-17.803 39.757-39.765v-21.402c0-21.962-17.8-39.765-39.757-39.765Z" fill="#757575" stroke="#263238" stroke-linecap="round" stroke-linejoin="round"/><path d="M160.26 132.44v14.346a8.15 8.15 0 0 0 8.149 8.151h49.21a8.15 8.15 0 0 0 8.149-8.093c.07-6.462.408-14.404.408-14.404H160.26Z" fill="#999" stroke="#263238" stroke-linecap="round" stroke-linejoin="round"/><path d="M340.359 137.226H52.574a7.37 7.37 0 0 1-6.87-4.658L1.315 18.583a4.542 4.542 0 0 1 4.238-6.195h381.852a4.54 4.54 0 0 1 4.179 6.195l-44.39 113.95a7.368 7.368 0 0 1-6.834 4.693Z" fill="#fff" stroke="#263238" stroke-linecap="round" stroke-linejoin="round"/><path d="M342.501 127.294H49.744L9.464 19.608h373.131l-40.094 107.686Z" fill="#fff"/><path d="M225.838 137.075h-65.264v4.471h65.264v-4.471Z" fill="#263238"/><path d="M299.741 122.682H93.006c-1.165 0-2.212-.512-2.422-1.164L61.177 28.073c-.326-1.048.594-1.898 2.06-1.898H329.51c1.467 0 2.387.85 2.049 1.898l-29.395 93.445c-.222.64-1.293 1.164-2.422 1.164Z" fill="#38BFF2"/><path d="M297.669 120.552H95.101a1.75 1.75 0 0 1-1.688-1.258L69.477 40.742a1.77 1.77 0 0 1 1.7-2.329h250.392a1.769 1.769 0 0 1 1.7 2.329l-23.912 78.552a1.755 1.755 0 0 1-1.688 1.258Z" fill="#263238"/><path d="M123.227 58.837H84.378c-.966 0-1.595.512-1.408 1.164a2.12 2.12 0 0 0 2.049 1.165h38.627c.955 0 1.63-.512 1.525-1.164-.104-.653-.989-1.165-1.944-1.165ZM124.519 65.928h-33.04c-.942 0-1.56.501-1.396 1.165a2.061 2.061 0 0 0 1.99 1.164h32.912c.943 0 1.606-.5 1.502-1.164-.105-.664-1.025-1.165-1.968-1.165Z" fill="#fff"/><path opacity=".5" d="M125.777 72.775H88.29c-.931 0-1.536.478-1.373 1.072a2.061 2.061 0 0 0 1.979 1.094h37.254c.919 0 1.583-.477 1.478-1.071-.105-.594-.92-1.095-1.851-1.095Z" fill="#fff"/><path d="M126.988 79.39h-22.015c-.908 0-1.537.465-1.397 1.035.14.571.99 1.037 1.898 1.037h21.898c.908 0 1.56-.466 1.455-1.037-.105-.57-.92-1.036-1.839-1.036ZM128.164 85.77h-36.23c-.885 0-1.49.454-1.327 1.002.163.547 1.001 1.001 1.898 1.001h36.089c.885 0 1.525-.442 1.432-1.001-.093-.56-.966-1.002-1.862-1.002ZM129.293 91.953h-29.244c-.885 0-1.479.431-1.34.967.14.535.967.966 1.84.966h29.105c.873 0 1.502-.43 1.408-.966-.093-.536-.884-.967-1.769-.967ZM130.387 97.927H101.62c-.873 0-1.455.419-1.315.931.14.513.943.944 1.804.944h28.628c.861 0 1.478-.42 1.385-.944-.093-.524-.862-.931-1.735-.931ZM131.447 103.702h-31.433c-.85 0-1.432.408-1.293.909.14.5.932.908 1.782.908h31.235c.849 0 1.466-.408 1.373-.908-.093-.501-.803-.909-1.664-.909Z" fill="#fff"/><path opacity=".5" d="M132.482 109.303h-20.303c-.838 0-1.42.396-1.304.885.117.489.897.873 1.723.873h20.175c.839 0 1.444-.395 1.363-.873-.082-.477-.815-.885-1.654-.885ZM121.877 51.478H92.924c-.978 0-1.63.535-1.455 1.164a2.108 2.108 0 0 0 2.06 1.165h28.779c.978 0 1.665-.536 1.548-1.165a1.929 1.929 0 0 0-1.979-1.164Z" fill="#fff"/><path d="M120.469 43.85H80.165c-.99 0-1.642.548-1.444 1.235a2.224 2.224 0 0 0 2.142 1.234h40.071c.978 0 1.688-.547 1.56-1.234-.128-.687-1.001-1.234-2.025-1.234ZM133.472 114.729h-33.4c-.827 0-1.385.385-1.257.85.128.466.908.85 1.734.85h33.238c.815 0 1.42-.384 1.338-.85-.081-.465-.826-.85-1.653-.85Z" fill="#fff"/><path opacity=".5" d="M136.872 61.422h7.532l-.372-2.876h-7.591l.431 2.876ZM137.92 68.42h7.404l-.361-2.771H137.5l.42 2.771ZM138.932 75.186h7.277l-.35-2.679h-7.322l.395 2.679ZM139.922 81.718h7.148l-.349-2.597h-7.195l.396 2.597ZM140.865 88.017h7.031l-.337-2.491h-7.067l.373 2.492ZM141.785 94.12h6.903l-.314-2.411h-6.962l.373 2.41ZM142.67 100.034h6.798l-.302-2.352h-6.846l.35 2.352ZM143.519 105.74h6.694l-.291-2.259h-6.741l.338 2.259ZM144.357 111.283h6.589l-.291-2.201h-6.624l.326 2.201ZM135.777 54.168h7.672l-.384-2.993h-7.73l.442 2.993ZM134.648 46.634h7.812l-.396-3.098h-7.881l.465 3.098ZM145.161 116.639h6.484l-.279-2.131h-6.52l.315 2.131Z" fill="#fff"/><path d="M184.871 104.611c0-.501.652-.909 1.502-.909h111.552c.85 0 1.432.408 1.28.909a1.882 1.882 0 0 1-1.792.908H186.431c-.85 0-1.548-.408-1.56-.908ZM299.054 99.802h-61.771c-.862 0-1.514-.42-1.456-.944.059-.524.804-.931 1.677-.931h62.109c.861 0 1.443.419 1.292.931a1.893 1.893 0 0 1-1.851.944Z" fill="#fff"/><path opacity=".5" d="M222.625 99.802h-19.209c-.861 0-1.56-.42-1.548-.944.011-.524.71-.931 1.583-.931h19.326c.861 0 1.536.419 1.49.931-.047.513-.78.944-1.642.944Z" fill="#fff"/><path d="M262.719 93.886h-87.127c-.873 0-1.607-.43-1.642-.966-.034-.536.652-.967 1.537-.967h87.593c.873 0 1.514.431 1.409.967-.105.535-.885.966-1.77.966Z" fill="#fff"/><path opacity=".5" d="M157.385 91.953h6.205c.873 0 1.63.431 1.676.967.047.535-.628.966-1.501.966h-6.182c-.873 0-1.63-.43-1.688-.966-.059-.536.605-.967 1.49-.967Z" fill="#fff"/><path d="M275.328 86.772c-.117.558-.931 1.001-1.828 1.001h-82.098c-.896 0-1.618-.442-1.63-1.001-.012-.56.71-1.002 1.595-1.002h82.552c.897 0 1.525.454 1.409 1.002ZM156.721 85.77h23.284c.897 0 1.642.454 1.665 1.002.023.547-.687 1.001-1.572 1.001h-23.167c-.885 0-1.653-.442-1.723-1.001-.07-.56.617-1.002 1.513-1.002ZM156.034 79.39h89.572c.908 0 1.583.465 1.502 1.035-.082.571-.873 1.037-1.781 1.037h-89.072c-.896 0-1.688-.466-1.746-1.037-.058-.57.617-1.036 1.525-1.036ZM214.185 74.941c-.92 0-1.641-.477-1.618-1.071.023-.594.792-1.072 1.723-1.072h47.254c.931 0 1.595.478 1.49 1.072-.105.594-.931 1.071-1.851 1.071h-46.998ZM155.335 72.775h40.898c.931 0 1.676.478 1.676 1.072 0 .593-.745 1.094-1.676 1.094h-40.665c-.931 0-1.723-.477-1.793-1.071-.07-.594.629-1.095 1.56-1.095ZM308.134 68.152H195.546c-.931 0-1.699-.5-1.699-1.164 0-.664.756-1.165 1.699-1.165h113.217c.943 0 1.56.501 1.385 1.165a2.104 2.104 0 0 1-2.014 1.164ZM310.09 61.131h-98.955c-.955 0-1.711-.512-1.688-1.164.023-.652.815-1.165 1.781-1.165h99.631c.954 0 1.583.513 1.397 1.165a2.146 2.146 0 0 1-2.166 1.164Z" fill="#fff"/><path opacity=".5" d="M312.232 53.865h-20.769c-.978 0-1.641-.536-1.49-1.165a2.06 2.06 0 0 1 2.049-1.164h20.862c.978 0 1.618.536 1.421 1.164a2.191 2.191 0 0 1-2.073 1.165Z" fill="#fff"/><path d="M276.969 53.865h-76.172c-.967 0-1.758-.536-1.747-1.165.012-.628.792-1.164 1.77-1.164h76.673c.978 0 1.665.536 1.525 1.164a2 2 0 0 1-2.049 1.165ZM159.224 109.303h70.352c.838 0 1.478.396 1.42.885-.058.489-.757.873-1.595.873h-69.979c-.838 0-1.56-.395-1.607-.873-.046-.477.571-.885 1.409-.885ZM159.806 114.729h108.083c.815 0 1.409.385 1.304.85-.105.466-.838.85-1.665.85H159.992c-.826 0-1.536-.384-1.583-.85-.046-.465.571-.85 1.397-.85ZM273.186 46.32H218.12c-.989 0-1.758-.548-1.723-1.235.035-.687.862-1.234 1.863-1.234h55.392c1.001 0 1.699.547 1.571 1.234a2.014 2.014 0 0 1-2.037 1.234Z" fill="#fff"/><path opacity=".5" d="M202.566 46.32h-50.059c-.99 0-1.852-.548-1.933-1.235-.082-.687.664-1.234 1.665-1.234h50.351c.989 0 1.792.547 1.781 1.234-.012.687-.815 1.234-1.805 1.234ZM245.176 109.303c.838 0 1.467.396 1.397.885-.07.489-.804.873-1.642.873h-5.436c-.827 0-1.456-.395-1.398-.873.059-.477.78-.885 1.619-.885h5.46ZM178.456 104.611c0 .5-.64.908-1.49.908h-7.404c-.85 0-1.572-.408-1.607-.908-.034-.501.617-.909 1.467-.909h7.439c.862 0 1.572.408 1.595.909ZM267.807 80.425c-.105.571-.919 1.037-1.828 1.037h-8.661c-.908 0-1.56-.466-1.479-1.037.082-.57.908-1.036 1.817-1.036h8.708c.908 0 1.56.466 1.443 1.037ZM294.828 85.77c.896 0 1.502.454 1.35 1.002a1.916 1.916 0 0 1-1.874 1.001h-6.903c-.897 0-1.502-.442-1.374-1.001a1.895 1.895 0 0 1 1.863-1.002h6.938ZM181.914 68.152c-.931 0-1.711-.5-1.746-1.164-.035-.664.721-1.165 1.664-1.165h7.346c.943 0 1.712.501 1.723 1.165.012.664-.745 1.164-1.676 1.164h-7.311Z" fill="#fff"/><path d="M81.91 32.3a2.482 2.482 0 0 1-2.444 3.435 5.191 5.191 0 0 1-4.587-3.435 2.493 2.493 0 0 1 2.421-3.493 5.145 5.145 0 0 1 4.61 3.493ZM91.34 32.358a2.55 2.55 0 0 1-2.56 3.423 4.96 4.96 0 0 1-4.47-3.423 2.574 2.574 0 0 1 2.537-3.493 4.936 4.936 0 0 1 4.494 3.493ZM100.921 32.3a2.645 2.645 0 0 1-1.455 3.218 2.643 2.643 0 0 1-1.257.217 4.773 4.773 0 0 1-4.366-3.435 2.655 2.655 0 0 1 2.654-3.493 4.726 4.726 0 0 1 4.424 3.493Z" fill="#fff"/><path d="M92.726 174.034H68.173a5.82 5.82 0 0 0-5.82 5.822v11.958a5.821 5.821 0 0 0 5.82 5.823h6.415l4.866 11.027 6.857-11.027h6.415a5.82 5.82 0 0 0 5.82-5.823v-12.005a5.824 5.824 0 0 0-5.82-5.775Z" fill="#fff" stroke="#263238" stroke-linecap="round" stroke-linejoin="round"/><path d="M77.033 180.904a1.167 1.167 0 0 1 1.96-.853c.216.201.347.477.368.771a1.167 1.167 0 0 1-1.96.853 1.165 1.165 0 0 1-.368-.771Zm.256 2.433h1.874v7.988h-1.91l.036-7.988ZM83.668 182.895v.477h2.2v1.502h-2.13v6.428H81.91v-6.428h-1.362v-1.502h1.362v-.512a2.575 2.575 0 0 1 2.853-2.76 2.98 2.98 0 0 1 1.7.431l-.524 1.409a1.853 1.853 0 0 0-1.037-.326c-.826 0-1.234.454-1.234 1.281Z" fill="#263238"/><path d="M167.49 175.71h-24.565a5.822 5.822 0 0 0-5.821 5.823v11.947a5.822 5.822 0 0 0 5.821 5.822h6.427l4.854 11.027 6.857-11.027h6.427a5.822 5.822 0 0 0 5.821-5.822v-11.994a5.824 5.824 0 0 0-5.821-5.776Z" fill="#fff" stroke="#263238" stroke-linecap="round" stroke-linejoin="round"/><path d="M148.095 189.579h-6.275a2.435 2.435 0 0 0 2.596 1.921 2.862 2.862 0 0 0 2.165-.873l1.001 1.164a4.477 4.477 0 0 1-4.702 1.03 4.484 4.484 0 0 1-2.923-3.824 3.975 3.975 0 0 1 2.528-3.82 3.958 3.958 0 0 1 1.593-.268 3.876 3.876 0 0 1 1.594.272 3.88 3.88 0 0 1 2.211 2.262c.19.511.27 1.056.235 1.6 0 .128-.012.361-.023.536Zm-6.287-1.235h4.529a2.176 2.176 0 0 0-2.259-1.956 2.2 2.2 0 0 0-2.27 1.956ZM149.911 181.882h1.851v11.097h-1.874l.023-11.097ZM153.321 192.187l.71-1.42a5.38 5.38 0 0 0 2.783.791c1.164 0 1.676-.326 1.676-.885 0-1.525-4.936-.093-4.936-3.272 0-1.513 1.362-2.503 3.493-2.503a6.407 6.407 0 0 1 2.992.687l-.722 1.42a4.4 4.4 0 0 0-2.329-.593c-1.164 0-1.676.372-1.676.896 0 1.619 4.936.175 4.936 3.307 0 1.491-1.374 2.469-3.62 2.469a6.399 6.399 0 0 1-3.307-.897ZM169.411 189.579h-6.275a2.435 2.435 0 0 0 2.596 1.921 2.851 2.851 0 0 0 2.165-.873l1.002 1.164a4.485 4.485 0 0 1-4.702 1.03 4.481 4.481 0 0 1-2.924-3.824 3.973 3.973 0 0 1 4.121-4.088 3.876 3.876 0 0 1 1.594.272 3.88 3.88 0 0 1 2.211 2.262c.19.511.27 1.056.235 1.6 0 .128-.011.361-.023.536Zm-6.287-1.235h4.529a2.176 2.176 0 0 0-2.259-1.956 2.2 2.2 0 0 0-2.27 1.956Z" fill="#263238"/><path d="M239.972 175h-24.564a5.822 5.822 0 0 0-5.821 5.822v11.959a5.822 5.822 0 0 0 5.821 5.822h6.426l4.855 11.027 6.857-11.027h6.426a5.82 5.82 0 0 0 5.821-5.822v-12.005a5.823 5.823 0 0 0-5.821-5.776Z" fill="#fff" stroke="#263238" stroke-linecap="round" stroke-linejoin="round"/><path d="M221.042 183.861v.536h2.2v1.502H221.1v6.428h-1.816v-6.428h-1.315v-1.502h1.315v-.512a2.575 2.575 0 0 1 2.853-2.76 2.958 2.958 0 0 1 1.688.431l-.524 1.409a1.798 1.798 0 0 0-1.025-.338c-.826-.058-1.234.384-1.234 1.234ZM223.72 188.275a4.262 4.262 0 1 1 4.249 4.098 4.007 4.007 0 0 1-3.947-2.48 4.008 4.008 0 0 1-.302-1.618Zm6.624 0a2.334 2.334 0 0 0-1.544-2.032 2.329 2.329 0 1 0 1.544 2.032ZM238.632 184.187v1.782a3.085 3.085 0 0 0-.43 0 2.175 2.175 0 0 0-2.246 1.507 2.193 2.193 0 0 0-.083.962v3.877h-1.874v-8.034h1.781v1.164a3.159 3.159 0 0 1 2.852-1.258Z" fill="#263238"/><path d="M311.406 174.034h-24.599a5.818 5.818 0 0 0-5.821 5.822v11.958a5.82 5.82 0 0 0 5.821 5.823h6.426l4.855 11.027 6.857-11.027h6.426a5.82 5.82 0 0 0 5.821-5.823v-12.005a5.82 5.82 0 0 0-5.786-5.775Z" fill="#fff" stroke="#263238" stroke-linecap="round" stroke-linejoin="round"/><path d="M295.934 182.918h6.892v1.479h-6.892v-1.479Zm0 3.622h6.892v1.502h-6.892v-1.502Z" fill="#263238"/><path d="M130.165 160.212h-24.564a5.82 5.82 0 0 0-5.82 5.822v11.947a5.82 5.82 0 0 0 5.82 5.822h6.426l4.855 11.027 6.857-11.027h6.426a5.818 5.818 0 0 0 5.821-5.822v-11.994a5.82 5.82 0 0 0-5.821-5.775Z" fill="#fff" stroke="#263238" stroke-linecap="round" stroke-linejoin="round"/><path d="M112.109 165.172h3.563v1.502h-1.7v11.004h1.7v1.502h-3.563v-14.008ZM120.329 179.18v-1.502h1.688v-11.004h-1.688v-1.502h3.492v13.973l-3.492.035Z" fill="#263238"/><path d="M203.184 158.989H178.62a5.819 5.819 0 0 0-5.821 5.822v11.901a5.822 5.822 0 0 0 5.821 5.822h6.426l4.866 11.027 6.857-11.027h6.415a5.82 5.82 0 0 0 5.821-5.822v-11.947a5.823 5.823 0 0 0-5.821-5.776Z" fill="#fff" stroke="#263238" stroke-linecap="round" stroke-linejoin="round"/><path d="M185.907 170.901c.593.198.884.606.884 1.526v2.853a1.01 1.01 0 0 0 .261.86 1.007 1.007 0 0 0 .845.304h.315v1.502h-.757a2.222 2.222 0 0 1-2.538-2.445v-3.074c0-.501-.256-.722-.675-.722h-.489v-1.526h.489c.419 0 .675-.221.675-.721v-3.086a2.207 2.207 0 0 1 .667-1.845 2.216 2.216 0 0 1 1.871-.589h.757v1.502h-.361a.993.993 0 0 0-1.083.701.998.998 0 0 0-.023.464v2.841c.046.862-.245 1.269-.838 1.455ZM197.316 170.144v1.526h-.512c-.408 0-.664.221-.664.722v3.074a2.233 2.233 0 0 1-1.543 2.363 2.227 2.227 0 0 1-1.006.082h-.757v-1.502h.314a1.02 1.02 0 0 0 .881-.283c.114-.114.199-.253.248-.407.05-.153.062-.316.036-.474v-2.853c0-.92.267-1.328.861-1.526-.594-.186-.861-.593-.861-1.525V166.5a.992.992 0 0 0-.278-.887.992.992 0 0 0-.887-.278h-.314v-1.432h.757a2.217 2.217 0 0 1 2.426 1.433c.117.32.159.662.123 1.001v3.085c0 .501.256.722.664.722h.512Z" fill="#263238"/><path d="M275.433 156.567h-24.564a5.819 5.819 0 0 0-5.821 5.822v11.947a5.82 5.82 0 0 0 5.821 5.823h6.414l4.867 11.027 6.857-11.027h6.426a5.82 5.82 0 0 0 5.821-5.823v-11.993a5.823 5.823 0 0 0-5.821-5.776Z" fill="#fff" stroke="#263238" stroke-linecap="round" stroke-linejoin="round"/><path d="M262.173 165.405a1.229 1.229 0 0 1 1.228-1.354 1.233 1.233 0 0 1 1.228 1.354c.017.172-.002.345-.057.508a1.24 1.24 0 0 1-1.171.846 1.24 1.24 0 0 1-1.228-1.354Zm2.456 5.706c-.032.446-.15.881-.349 1.281l-.768 2.119h-1.165l.606-2.329a1.16 1.16 0 0 1-.71-1.106 1.215 1.215 0 1 1 2.433 0l-.047.035Z" fill="#263238"/><path d="M179.411 365.512h24.552a5.822 5.822 0 0 0 5.821-5.822v-11.912a5.824 5.824 0 0 0-5.821-5.764h-6.414l-1.875-11.027-9.849 11.027h-6.414a5.822 5.822 0 0 0-5.821 5.764v11.958a5.823 5.823 0 0 0 5.821 5.776Z" fill="#fff" stroke="#263238" stroke-linecap="round" stroke-linejoin="round"/><path d="m188.037 351.306-5.157 1.933 5.157 1.933v1.56l-6.891-2.678v-1.63l6.891-2.679v1.561ZM193.486 345.868h1.665l-4.971 14.101h-1.63l4.936-14.101ZM202.404 352.424v1.618l-6.892 2.678v-1.56l5.145-1.921-5.157-1.922v-1.572l6.904 2.679Z" fill="#263238"/><path d="M23.27 278.471h24.553a5.82 5.82 0 0 0 5.82-5.822v-11.901a5.82 5.82 0 0 0-5.82-5.822h-6.415l1.397-11.027-13.12 11.027H23.27a5.82 5.82 0 0 0-5.82 5.822v11.947a5.824 5.824 0 0 0 5.82 5.776Z" fill="#fff" stroke="#263238" stroke-linecap="round" stroke-linejoin="round"/><path d="M30.547 270.891a1.167 1.167 0 0 1 1.164-1.165 1.166 1.166 0 0 1 .823 1.988 1.166 1.166 0 0 1-1.987-.823Zm.14-9.409h2.211l-.372 6.987h-1.514l-.325-6.987ZM34.796 264.16h6.892v1.502h-6.892v-1.502Zm0 3.622h6.892v1.502h-6.892v-1.502Z" fill="#263238"/></svg>