<svg width="52" height="60" fill="none" xmlns="http://www.w3.org/2000/svg"><path d="M35.266 4.02v51.96a3.093 3.093 0 0 1-3.093 3.092H4.248a3.093 3.093 0 0 1-3.093-3.093V4.021A3.093 3.093 0 0 1 4.248.928h27.925a3.093 3.093 0 0 1 3.093 3.093Z" fill="#fff"/><path d="M26.815.928v2.47A2.474 2.474 0 0 1 24.34 5.87H12.08a2.474 2.474 0 0 1-2.474-2.474V.927h17.209ZM50.845 20.765v19.707a2.474 2.474 0 0 1-2.474 2.474H18.21V18.291h30.16a2.474 2.474 0 0 1 2.475 2.474Z" fill="#38BFF2"/><path d="M18.21 23.347h32.635v6.131H18.21v-6.13Z" fill="#D7E9FF"/><path d="M10.056 54.742a.618.618 0 1 0 0 1.237h16.31a.618.618 0 1 0 0-1.237h-16.31ZM22.697 4.018h1.105a.618.618 0 1 0 0-1.237h-1.105a.618.618 0 1 0 0 1.237ZM12.62 4.018h7.178a.618.618 0 1 0 0-1.237H12.62a.618.618 0 1 0 0 1.237Z" fill="#1A2E35"/><path d="M48.37 17.672H35.886V4.021A3.715 3.715 0 0 0 32.174.309H4.248A3.715 3.715 0 0 0 .537 4.021v51.958a3.715 3.715 0 0 0 3.711 3.712h27.925a3.715 3.715 0 0 0 3.712-3.712V43.565H48.37a3.096 3.096 0 0 0 3.093-3.093V20.765a3.096 3.096 0 0 0-3.093-3.093Zm1.857 3.093v1.964H18.829v-3.82H48.37c1.023 0 1.855.833 1.855 1.856Zm0 8.095H18.829v-4.894h31.398v4.893ZM26.197 1.546v1.851a1.858 1.858 0 0 1-1.857 1.856H12.08a1.858 1.858 0 0 1-1.855-1.856v-1.85h15.971Zm8.45 54.433a2.477 2.477 0 0 1-2.473 2.474H4.248a2.477 2.477 0 0 1-2.474-2.474V4.021a2.477 2.477 0 0 1 2.474-2.475h4.74v1.851A3.096 3.096 0 0 0 12.08 6.49h12.26a3.096 3.096 0 0 0 3.092-3.093v-1.85h4.74a2.477 2.477 0 0 1 2.475 2.474v13.651h-15.82v-2.79a.618.618 0 1 0-1.236 0v31.466a.618.618 0 1 0 1.236 0v-2.783h15.82v12.414Zm13.724-13.651H18.829v-7.56h20.45a.618.618 0 1 0 0-1.238h-20.45v-3.433h31.398v10.375a1.858 1.858 0 0 1-1.856 1.856Z" fill="#1A2E35"/><path d="M39.279 37.657h-1.772a.618.618 0 1 0 0 1.237h1.772a.618.618 0 1 0 0-1.237ZM34.213 37.657h-1.772a.618.618 0 1 0 0 1.237h1.772a.618.618 0 1 0 0-1.237ZM29.148 37.657h-1.772a.618.618 0 1 0 0 1.237h1.772a.618.618 0 1 0 0-1.237ZM24.083 37.657H22.31a.618.618 0 1 0 0 1.237h1.772a.618.618 0 1 0 0-1.237Z" fill="#1A2E35"/></svg>